<?xml version="1.0" encoding="UTF-8" standalone="no"?>
<!-- Created with Inkscape (http://www.inkscape.org/) -->

<svg
   xmlns:dc="http://purl.org/dc/elements/1.1/"
   xmlns:cc="http://creativecommons.org/ns#"
   xmlns:rdf="http://www.w3.org/1999/02/22-rdf-syntax-ns#"
   xmlns:svg="http://www.w3.org/2000/svg"
   xmlns="http://www.w3.org/2000/svg"
   xmlns:sodipodi="http://sodipodi.sourceforge.net/DTD/sodipodi-0.dtd"
   xmlns:inkscape="http://www.inkscape.org/namespaces/inkscape"
   width="190"
   height="70"
   
   version="1.1"
   id="svg8"
   inkscape:version="0.92.1 r15371"
   sodipodi:docname="geo.svg">
  <defs
     id="defs2">
    <style
       id="style4485"
       type="text/css"><![CDATA[
    .fil0 {fill:black;fill-rule:nonzero}
   ]]></style>
  </defs>
  <sodipodi:namedview
     id="base"
     height="100"
     width="200"
     pagecolor="#ffffff"
     bordercolor="#666666"
     borderopacity="1.0"
     inkscape:pageopacity="0.0"
     inkscape:pageshadow="2"
     inkscape:zoom="0.49497475"
     inkscape:cx="168.1412"
     inkscape:cy="761.04053"
     inkscape:document-units="mm"
     inkscape:current-layer="layer1"
     showgrid="false"
     inkscape:window-width="1280"
     inkscape:window-height="962"
     inkscape:window-x="1272"
     inkscape:window-y="-8"
     inkscape:window-maximized="1" />
  <metadata
     id="metadata5">
    <rdf:RDF>
      <cc:Work
         rdf:about="">
        <dc:format>image/svg+xml</dc:format>
        <dc:type
           rdf:resource="http://purl.org/dc/dcmitype/StillImage" />
        <dc:title></dc:title>
      </cc:Work>
    </rdf:RDF>
  </metadata>
  <g
     inkscape:label="Layer 1"
     inkscape:groupmode="layer"
     id="layer1">
    <text
       xml:space="preserve"
       style="font-style:normal;font-variant:normal;font-weight:normal;font-stretch:normal;font-size:12.69999981px;line-height:1.25;font-family:'Gill Sans Ultra Bold';-inkscape-font-specification:'Gill Sans Ultra Bold, ';letter-spacing:0px;word-spacing:0px;fill:#424242;fill-opacity:1;stroke:none;stroke-width:0.26458332;"
       x="24.946428"
       y="129.93452"
       id="text4522"><tspan
         sodipodi:role="line"
         id="tspan4520"
         x="24.946428"
         y="141.94839"
         style="stroke-width:0.26458332;fill:#424242;" /></text>
    <g
       id="g4604"
       transform="translate(29.934187,-74.033659)">
      <g
         transform="matrix(0.01575387,0,0,0.01330639,-15.565566,48.917883)"
         id="__x0023_Layer_x0020_1"
         style="clip-rule:evenodd;fill-rule:evenodd;image-rendering:optimizeQuality;shape-rendering:geometricPrecision;text-rendering:geometricPrecision">
        <metadata
           id="CorelCorpID_0Corel-Layer" />
        <path
           id="path4490"
           d="M 9595,3391 H 8543 c -570,0 -1031,462 -1031,1031 0,570 462,1031 1031,1031 h 1052 c 570,0 1031,-462 1031,-1031 0,-570 -462,-1031 -1031,-1031 z m -63,1635 v 0 h -927 c -334,0 -604,-270 -604,-604 0,-334 270,-604 604,-604 h 927 c 334,0 604,270 604,604 0,334 -270,604 -604,604 z"
           class="fil0"
           inkscape:connector-curvature="0"
           style="fill:#424242;fill-rule:nonzero" />
        <path
           id="path4496"
           d="m 6798,4604 c 334,0 604,-270 604,-604 0,-334 -270,-609 -604,-609 H 5397 c -570,0 -1031,462 -1031,1031 0,570 462,1031 1031,1031 H 7303 V 5026 H 5459 c -334,0 -604,-270 -604,-604 0,-334 270,-604 604,-604 h 1276 c 98,0 177,84 177,182 0,98 -79,177 -177,177 H 5141 v 427 h 1656 z"
           class="fil0"
           inkscape:connector-curvature="0"
           style="fill:#424242;fill-rule:nonzero" />
        <path
           id="path4498"
           d="m 2459,5026 c -431,0 -781,-329 -781,-760 0,-431 350,-776 781,-776 H 4173 V 3080 H 2376 c -655,0 -1186,531 -1186,1186 0,655 531,1186 1186,1186 H 4173 V 4162 H 2683 v 427 h 990 v 438 H 2459 Z"
           class="fil0"
           inkscape:connector-curvature="0"
           style="fill:#424242;fill-rule:nonzero" />
        <path
           id="path4500"
           d="m 9709,3961 h -85 c 47,32 115,89 172,168 h -288 c -42,-65 -96,-123 -158,-168 h -85 c 47,32 115,89 172,168 h -322 v -168 h -81 v 168 h -322 c 57,-79 125,-136 172,-168 h -85 c -62,45 -116,103 -158,168 h -288 c 57,-79 125,-136 172,-168 h -85 c -147,107 -251,281 -251,477 0,181 89,342 212,445 h 83 c -48,-46 -91,-91 -128,-139 h 283 c 34,53 75,100 121,139 h 83 c -47,-45 -91,-90 -127,-140 h 317 v 140 h 81 v -140 h 317 c -36,49 -80,94 -127,140 h 83 c 46,-39 88,-86 121,-139 h 283 c -37,48 -80,93 -128,139 h 83 c 123,-103 212,-265 212,-445 0,-196 -103,-370 -251,-477 z m -1404,702 v 0 c -29,-55 -48,-115 -54,-185 h 300 c 5,65 21,128 46,185 z m 246,-266 v 0 h -299 c 6,-70 26,-132 53,-187 h 294 c -26,58 -43,121 -47,187 z m 484,265 v 0 h -370 c -29,-55 -49,-114 -54,-184 h 424 v 185 z m 0,-265 v 0 h -423 c 6,-70 26,-133 54,-187 h 370 v 187 z m 81,-187 v 0 h 370 c 28,54 48,117 54,187 h -423 v -187 z m 370,452 v 0 h -370 v -185 h 424 c -5,70 -25,129 -54,184 z m 360,-452 v 0 c 27,55 47,117 53,187 h -299 c -5,-66 -21,-129 -47,-187 h 294 z m -293,453 v 0 c 25,-58 41,-120 46,-185 h 300 c -5,70 -24,130 -54,185 z"
           class="fil0"
           inkscape:connector-curvature="0"
           style="fill:#424242;fill-rule:nonzero" />
      </g>
      <path
         inkscape:connector-curvature="0"
         d="m 13.968861,127.44399 c -3.135625,0 -5.611657,0.51476 -7.4279702,1.54361 -1.8163132,1.02886 -2.7243815,2.43348 -2.7243815,4.21418 0,1.78566 0.9168672,3.19299 2.7512531,4.22185 1.8343861,1.02391 4.3510466,1.53595 7.5499266,1.53595 2.855497,0 5.119069,-0.39571 6.7908,-1.18714 1.671731,-0.79636 2.597914,-1.91461 2.778642,-3.35401 h -6.072498 c -0.0994,0.57873 -0.442546,1.02423 -1.029911,1.33585 -0.578329,0.31163 -1.36451,0.46727 -2.358512,0.46727 -1.292203,0 -2.27273,-0.25486 -2.941423,-0.76434 -0.668692,-0.50948 -1.003039,-1.2612 -1.003039,-2.25543 0,-1.01401 0.311832,-1.77079 0.935343,-2.27038 0.632547,-0.50453 1.576845,-0.75667 2.832902,-0.75667 1.030148,0 1.830044,0.14319 2.399337,0.43009 0.569292,0.28194 0.898723,0.70254 0.989087,1.26149 h 6.140193 c -0.1988,-1.41962 -1.129383,-2.51024 -2.792077,-3.27199 -1.653659,-0.7667 -3.926029,-1.15033 -6.817672,-1.15033 z m 21.971785,0 c -3.207916,0 -5.742691,0.51476 -7.604188,1.54361 -1.852458,1.02886 -2.77864,2.43348 -2.77864,4.21418 0,1.77576 0.926182,3.18038 2.77864,4.21418 1.861497,1.02886 4.396272,1.54362 7.604188,1.54362 3.198879,0 5.72434,-0.51476 7.576799,-1.54362 1.852459,-1.0338 2.778641,-2.43842 2.778641,-4.21418 0,-1.7807 -0.926182,-3.18532 -2.778641,-4.21418 -1.852459,-1.02885 -4.37792,-1.54361 -7.576799,-1.54361 z m 87.169354,0 c -3.13562,0 -5.61165,0.51476 -7.42797,1.54361 -1.81631,1.02886 -2.72438,2.43348 -2.72438,4.21418 0,1.78566 0.91739,3.19299 2.75177,4.22185 1.83439,1.02391 4.35105,1.53595 7.54993,1.53595 2.8555,0 5.11907,-0.39571 6.7908,-1.18714 1.67173,-0.79636 2.59791,-1.91461 2.77864,-3.35401 h -6.0725 c -0.0994,0.57873 -0.44306,1.02423 -1.03043,1.33585 -0.57833,0.31163 -1.36399,0.46727 -2.35799,0.46727 -1.2922,0 -2.27273,-0.25486 -2.94142,-0.76434 -0.6687,-0.50948 -1.00304,-1.2612 -1.00304,-2.25543 0,-1.01401 0.31183,-1.77079 0.93534,-2.27038 0.63254,-0.50453 1.57684,-0.75667 2.8329,-0.75667 1.03015,0 1.82953,0.14319 2.39882,0.43009 0.56929,0.28194 0.89924,0.70254 0.98961,1.26149 h 6.14019 c -0.1988,-1.41962 -1.12938,-2.51024 -2.79208,-3.27199 -1.65366,-0.7667 -3.92654,-1.15033 -6.81819,-1.15033 z m -73.872491,0.28212 v 10.92912 h 6.085933 v -5.11957 c 0,-0.38088 -0.0132,-0.67504 -0.04031,-0.88279 -0.02711,-0.21269 -0.07265,-0.4158 -0.135909,-0.6087 0.207836,0.3512 0.411499,0.66285 0.610299,0.93491 0.207835,0.27205 0.397267,0.48254 0.568957,0.63093 l 5.598107,5.04522 h 6.113323 v -10.92912 h -6.11332 v 5.15676 c 0,0.3314 0.01371,0.61311 0.04083,0.84559 0.02711,0.23248 0.06774,0.44531 0.121954,0.63822 -0.216871,-0.37098 -0.424934,-0.6877 -0.623734,-0.94985 -0.189765,-0.26216 -0.370393,-0.46488 -0.542084,-0.60833 l -5.598109,-5.08239 z m 22.608955,0 v 10.92912 h 6.086451 v -5.11957 c 0,-0.38088 -0.01371,-0.67504 -0.04082,-0.88279 -0.02711,-0.21269 -0.07214,-0.4158 -0.135392,-0.6087 0.207838,0.3512 0.410982,0.66285 0.609782,0.93491 0.207836,0.27205 0.397783,0.48254 0.569473,0.63093 l 5.597591,5.04522 h 6.113323 v -10.92912 h -6.113323 v 5.15676 c 0,0.3314 0.01371,0.61311 0.04083,0.84559 0.02711,0.23248 0.06774,0.44531 0.121957,0.63822 -0.216874,-0.37098 -0.424418,-0.6877 -0.623218,-0.94985 -0.189765,-0.26216 -0.370912,-0.46488 -0.542603,-0.60833 l -5.597591,-5.08239 z m 22.609474,0 v 10.92912 h 16.360242 v -2.65639 h -9.94927 v -1.69157 h 8.07858 v -2.50766 h -8.07858 v -1.4543 h 9.55601 v -2.6192 z m 39.552112,0 v 2.87871 h 5.74693 v 8.05041 h 6.4115 v -8.05041 h 5.62498 v -2.87871 z m -98.067404,2.46319 c 1.337384,0 2.317912,0.2424 2.941423,0.72716 0.62351,0.47979 0.935342,1.24163 0.935342,2.28532 0,1.03875 -0.311832,1.80059 -0.935342,2.28534 -0.623511,0.47979 -1.604039,0.71948 -2.941423,0.71948 -1.346422,0 -2.335747,-0.2424 -2.968294,-0.72715 -0.632547,-0.48475 -0.94878,-1.24386 -0.94878,-2.27767 0,-1.03874 0.316233,-1.80058 0.94878,-2.28532 0.632547,-0.48476 1.621872,-0.72716 2.968294,-0.72716 z"
         style="font-style:normal;font-variant:normal;font-weight:normal;font-stretch:normal;font-size:23.84687042px;line-height:1.25;font-family:'Berlin Sans FB Demi';-inkscape-font-specification:'Berlin Sans FB Demi';letter-spacing:0px;word-spacing:0px;fill:#424242;fill-opacity:1;stroke:none;stroke-width:0.42788059"
         id="text4530" />
    </g>
  </g>
</svg>
